<?xml version="1.0" encoding="UTF-8" standalone="no"?>
<svg
   xmlns:dc="http://purl.org/dc/elements/1.1/"
   xmlns:cc="http://creativecommons.org/ns#"
   xmlns:rdf="http://www.w3.org/1999/02/22-rdf-syntax-ns#"
   xmlns:svg="http://www.w3.org/2000/svg"
   xmlns="http://www.w3.org/2000/svg"
   viewBox="0 0 758.71997 514.29333"
   height="514.29333"
   width="758.71997"
   xml:space="preserve"
   id="svg2"
   version="1.1"><metadata
     id="metadata8"><rdf:RDF><cc:Work
         rdf:about=""><dc:format>image/svg+xml</dc:format><dc:type
           rdf:resource="http://purl.org/dc/dcmitype/StillImage" /></cc:Work></rdf:RDF></metadata><defs
     id="defs6" /><g
     transform="matrix(1.3333333,0,0,-1.3333333,0,514.29333)"
     id="g10"><g
       transform="scale(0.1)"
       id="g12"><path
         id="path14"
         style="fill:#e7e8e5;fill-opacity:1;fill-rule:evenodd;stroke:none"
         d="m 4809.96,2553.19 c -41.72,16.77 -89.16,-3.47 -105.92,-45.2 -16.77,-41.74 3.47,-89.16 45.2,-105.93 41.74,-16.77 89.16,3.47 105.93,45.2 16.77,41.74 -3.47,89.16 -45.21,105.93 z m 78.47,75.54 c 13.43,-10.04 25.27,-21.71 35.35,-34.63 l 45.14,8.24 29.79,-69.82 -37.17,-26.89 c 2.35,-16.21 2.59,-32.85 0.54,-49.49 l 37.74,-26.08 -28.31,-70.44 -45.29,7.27 c -10.03,-13.44 -21.71,-25.28 -34.63,-35.35 l 8.24,-45.15 -69.82,-29.79 -26.89,37.18 c -16.21,-2.36 -32.84,-2.59 -49.49,-0.54 l -26.08,-37.73 -70.45,28.3 7.28,45.29 c -13.44,10.02 -25.28,21.71 -35.35,34.63 l -45.15,-8.24 -29.79,69.82 37.18,26.89 c -2.35,16.21 -2.59,32.84 -0.54,49.49 l -37.73,26.08 28.3,70.44 45.29,-7.27 c 10.02,13.43 21.71,25.28 34.63,35.35 l -8.24,45.14 69.82,29.8 26.89,-37.18 c 16.21,2.35 32.84,2.59 49.49,0.54 l 26.08,37.73 70.44,-28.3 -7.27,-45.29 v 0" /><path
         id="path16"
         style="fill:#e7e8e5;fill-opacity:1;fill-rule:evenodd;stroke:none"
         d="m 559.922,2187.8 c -75.438,30.31 -161.16,-6.27 -191.469,-81.7 -30.305,-75.44 6.277,-161.16 81.711,-191.47 75.434,-30.3 161.156,6.27 191.469,81.71 30.305,75.44 -6.274,161.16 -81.711,191.46 z m 141.816,136.53 c 24.285,-18.13 45.688,-39.24 63.907,-62.59 l 81.589,14.9 53.852,-126.21 -67.195,-48.6 c 4.254,-29.3 4.687,-59.37 0.98,-89.45 l 68.199,-47.14 -51.168,-127.33 -81.839,13.15 c -18.141,-24.29 -39.262,-45.7 -62.61,-63.91 l 14.895,-81.58 -126.203,-53.86 -48.61,67.2 c -29.301,-4.25 -59.359,-4.68 -89.441,-0.98 l -47.145,-68.19 -127.324,51.15 13.145,81.85 c -24.286,18.14 -45.692,39.26 -63.903,62.61 l -81.59,-14.9 -53.8551,126.21 67.2071,48.6 c -4.254,29.3 -4.684,59.36 -0.977,89.45 l -68.2028,47.14 51.1598,127.32 81.844,-13.15 c 18.141,24.3 39.254,45.7 62.606,63.91 l -14.895,81.59 126.203,53.86 48.613,-67.21 c 29.297,4.26 59.36,4.68 89.438,0.98 l 47.145,68.2 127.324,-51.15 -13.149,-81.87 v 0" /><path
         id="path18"
         style="fill:#ededeb;fill-opacity:1;fill-rule:evenodd;stroke:none"
         d="m 288.418,2887.64 c -41.738,16.77 -89.16,-3.46 -105.93,-45.2 -16.765,-41.73 3.473,-89.16 45.207,-105.93 41.731,-16.76 89.16,3.47 105.926,45.21 16.77,41.73 -3.473,89.16 -45.203,105.92 z m 78.453,75.54 c 13.442,-10.03 25.281,-21.71 35.359,-34.63 l 45.141,8.25 29.793,-69.83 -37.176,-26.89 c 2.356,-16.21 2.594,-32.85 0.543,-49.49 l 37.731,-26.08 -28.309,-70.44 -45.277,7.28 c -10.039,-13.45 -21.723,-25.29 -34.641,-35.36 l 8.246,-45.14 -69.828,-29.8 -26.887,37.18 c -16.211,-2.35 -32.843,-2.59 -49.488,-0.54 l -26.086,-37.73 -70.437,28.3 7.273,45.29 c -13.433,10.03 -25.281,21.72 -35.355,34.63 l -45.141,-8.24 -29.7929,69.82 37.1797,26.89 c -2.3516,16.21 -2.5899,32.85 -0.5391,49.49 l -37.7305,26.08 28.3008,70.44 45.281,-7.27 c 10.035,13.44 21.715,25.28 34.633,35.36 l -8.234,45.14 69.816,29.79 26.899,-37.18 c 16.21,2.35 32.839,2.59 49.48,0.54 l 26.086,37.74 70.437,-28.31 -7.277,-45.29 v 0" /><path
         id="path20"
         style="fill:#dadbd8;fill-opacity:1;fill-rule:evenodd;stroke:none"
         d="m 1151.62,3282.42 c -111.62,10.4 -210.538,-71.65 -220.936,-183.27 -10.403,-111.61 71.656,-210.53 183.266,-220.93 111.62,-10.4 210.54,71.65 220.94,183.27 10.4,111.62 -71.65,210.53 -183.27,220.93 z m 133.76,236.21 c 39.23,-14.42 75.82,-33.92 109.07,-57.61 l 101.98,51.77 120.8,-145.63 -69.71,-90.66 c 17.14,-37.06 29.54,-76.63 36.47,-117.84 l 108.66,-35.5 -17.56,-188.39 -113.34,-14.81 c -14.43,-39.23 -33.92,-75.83 -57.63,-109.07 l 51.77,-101.99 -145.63,-120.79 -90.67,69.72 c -37.05,-17.15 -76.61,-29.54 -117.83,-36.46 l -35.5,-108.68 -188.393,17.56 -14.797,113.34 c -39.234,14.43 -75.832,33.92 -109.078,57.63 l -101.98,-51.77 -120.801,145.63 69.715,90.67 c -17.141,37.05 -29.528,76.62 -36.453,117.83 l -108.684,35.49 17.559,188.4 113.351,14.8 c 14.426,39.23 33.914,75.83 57.621,109.08 l -51.769,101.98 145.633,120.8 90.668,-69.72 c 37.054,17.14 76.618,29.54 117.828,36.46 l 35.5,108.67 188.39,-17.55 14.81,-113.36 v 0" /><path
         id="path22"
         style="fill:#f03d5f;fill-opacity:1;fill-rule:nonzero;stroke:none"
         d="m 494.613,401.09 c 124.848,81.719 156.551,238.18 155.16,379.531 -0.23,23.598 3.004,48.399 -7.855,69.348 -10.859,20.961 -37.023,35.73 -58.656,26.301 -17.942,-7.821 -26.172,-28 -36.516,-44.61 -13.75,-22.09 -33.879,-40.16 -57.32,-51.461 -15.399,-7.429 -34.328,-11.75 -49.149,-3.207 -20.332,11.699 -22.07,39.86 -21.347,63.309 1.347,43.699 2.695,87.39 4.043,131.078 0.722,23.453 1.382,47.391 -5.465,69.811 -6.84,22.44 -22.66,43.51 -45.113,50.29 -22.45,6.79 -50.715,-5.4 -56.047,-28.24 -2.219,-9.51 -0.496,-19.47 -1.387,-29.18 -0.906,-9.72 -5.762,-20.38 -15.195,-22.87 -9.551,-2.51 -18.895,4.35 -25.828,11.38 -23.946,24.27 -39.836,55.17 -54.649,85.87 -14.809,30.69 -29.141,62.11 -50.754,88.47 -21.617,26.35 -51.902,47.55 -85.8748,50.26 -33.9805,2.72 -70.7422,-17.15 -80.14848,-49.91 -9.4375,-32.84 9.28908,-66.86 29.89848,-94.12 30.5703,-40.45 67.0312,-76.46 107.8668,-106.519 7.364,-5.43 15.344,-11.281 17.996,-20.039 4.778,-15.762 -10.617,-30.934 -26.375,-35.691 -17.863,-5.403 -37.0269,-3.121 -55.605,-4.832 -18.5782,-1.707 -38.8477,-9.297 -46.2852,-26.411 -10.3125,-23.738 9.3789,-49.339 28.961,-66.269 39.207,-33.899 84.2652,-61.02 132.5822,-79.809 17.324,-6.742 35.582,-12.718 49.371,-25.172 13.797,-12.449 21.785,-33.726 12.871,-50.039 -8.926,-16.339 -30.91,-21.089 -49.137,-17.3 C 186.434,674.84 170.281,685.039 153,691.961 120.648,704.91 78.4258,703.691 56.8359,676.332 42.6406,658.359 40.8047,632.879 47.2188,610.898 53.6367,588.922 67.2734,569.789 81.8203,552.09 132.66,490.25 198.461,439.879 273.566,412.141 348.672,384.41 418.676,375.73 494.613,401.09" /><path
         id="path24"
         style="fill:#17282f;fill-opacity:1;fill-rule:nonzero;stroke:none"
         d="m 37.6211,1228.61 c -0.043,-0.06 0.7187,-0.83 2.2539,-2.29 1.7148,-1.58 4,-3.69 6.9063,-6.38 6.0937,-5.57 15.0664,-13.8 26.332,-24.7 22.5703,-21.74 54.2307,-54.39 88.3787,-98.84 17.149,-22.15 34.914,-47.2 53.5,-74.42 18.535,-27.281 38.153,-56.55 57.61,-88.07 19.457,-31.5 38.882,-65.238 56.16,-101.609 8.722,-18.141 16.422,-37.102 24.289,-56.43 7.816,-19.301 15.75,-38.91 23.777,-58.742 31.836,-79.438 59.664,-156.168 79.137,-227.668 19.605,-71.449 30.695,-137.512 34.883,-193.352 4.332,-55.871 2.047,-101.339 -1.016,-132.488 -1.629,-15.582 -3.133,-27.672 -4.453,-35.812 -0.555,-3.918 -0.996,-7 -1.328,-9.309 -0.274,-2.09 -0.379,-3.168 -0.309,-3.191 0.074,-0.008 0.328,1.043 0.75,3.121 0.434,2.289 1.016,5.34 1.754,9.23 1.606,8.11 3.387,20.192 5.277,35.77 3.594,31.179 6.352,76.789 2.407,132.902 -3.813,56.09 -14.629,122.449 -34.078,194.18 -19.321,71.789 -47.106,148.726 -78.969,228.226 -8.039,19.852 -15.981,39.461 -23.809,58.782 -7.863,19.269 -15.656,38.378 -24.449,56.609 -17.43,36.562 -37.004,70.371 -56.605,101.91 -19.602,31.543 -39.36,60.781 -58.04,87.991 -18.742,27.16 -36.695,52.16 -54.046,74.26 -34.575,44.35 -66.684,76.79 -89.6488,98.18 -11.4649,10.73 -20.6329,18.77 -26.918,24.13 -3.0313,2.55 -5.4102,4.55 -7.1914,6.06 -1.6406,1.34 -2.5,2.01 -2.5547,1.95" /><path
         id="path26"
         style="fill:#17282f;fill-opacity:1;fill-rule:nonzero;stroke:none"
         d="m 331.375,834.34 c 0.297,-0.059 1.195,3.492 2.574,9.941 1.406,6.461 3.125,15.848 5.086,27.481 3.934,23.269 8.25,55.59 12.871,91.226 4.625,35.672 9.395,67.822 13.684,90.972 2.105,11.57 3.906,20.93 5.234,27.38 1.289,6.45 1.864,10.07 1.571,10.14 -0.293,0.08 -1.426,-3.4 -3.227,-9.76 -1.84,-6.34 -4.109,-15.62 -6.609,-27.17 -5.075,-23.07 -10.356,-55.3 -14.981,-90.991 -4.469,-35.188 -8.512,-67.008 -11.598,-91.34 -1.468,-10.981 -2.71,-20.227 -3.707,-27.649 -0.859,-6.539 -1.191,-10.179 -0.898,-10.23" /><path
         id="path28"
         style="fill:#17282f;fill-opacity:1;fill-rule:nonzero;stroke:none"
         d="m 27.3047,897.969 c -0.0195,-0.297 4.3086,-0.899 12.1406,-1.739 7.8242,-0.871 19.1524,-2.07 33.086,-4.011 27.9067,-3.637 66.2697,-10.02 108.2887,-18.867 42.016,-8.942 79.692,-18.622 106.739,-26.403 13.554,-3.801 24.437,-7.16 31.972,-9.437 7.528,-2.313 11.746,-3.461 11.844,-3.172 0.102,0.281 -3.922,1.961 -11.297,4.781 -7.39,2.777 -18.16,6.598 -31.633,10.789 -26.898,8.559 -64.578,18.75 -106.718,27.711 -42.149,8.891 -80.739,14.801 -108.8286,17.68 -14.0273,1.539 -25.4375,2.281 -33.3203,2.629 -7.8945,0.32 -12.2539,0.34 -12.2734,0.039" /><path
         id="path30"
         style="fill:#17282f;fill-opacity:1;fill-rule:nonzero;stroke:none"
         d="m 456.223,496.148 c 0.136,-0.058 0.89,1.192 2.187,3.633 1.485,2.91 3.297,6.469 5.496,10.778 4.727,9.382 11.203,23.132 18.985,40.23 15.586,34.18 35.601,82.07 56.976,135.223 21.383,53.148 40.922,101.16 55.762,135.609 7.269,16.75 13.25,30.527 17.695,40.77 1.899,4.437 3.465,8.109 4.75,11.109 1.043,2.57 1.524,3.941 1.387,4.012 -0.137,0.07 -0.883,-1.18 -2.184,-3.633 -1.484,-2.91 -3.293,-6.457 -5.492,-10.77 -4.726,-9.398 -11.207,-23.14 -18.984,-40.25 C 577.219,788.691 557.195,740.789 535.82,687.641 514.441,634.5 494.906,586.5 480.063,552.031 c -7.274,-16.742 -13.254,-30.511 -17.7,-40.761 -1.894,-4.442 -3.465,-8.11 -4.746,-11.11 -1.047,-2.57 -1.531,-3.949 -1.394,-4.012" /><path
         id="path32"
         style="fill:#17282f;fill-opacity:1;fill-rule:nonzero;stroke:none"
         d="m 53.4844,634.961 c -0.043,-0.141 1.3242,-0.742 3.9844,-1.742 3.1445,-1.117 7.0078,-2.5 11.6953,-4.18 10.8007,-3.738 25.3867,-8.789 43.1249,-14.937 36.406,-12.614 86.496,-30.622 141.816,-50.602 55.336,-19.969 105.645,-37.531 142.333,-49.418 18.339,-5.953 33.234,-10.613 43.589,-13.633 4.789,-1.359 8.735,-2.488 11.946,-3.398 2.742,-0.731 4.207,-1.051 4.25,-0.903 0.05,0.141 -1.328,0.743 -3.989,1.731 -3.14,1.141 -7,2.512 -11.683,4.18 -10.801,3.742 -25.387,8.8 -43.125,14.953 -36.41,12.617 -86.504,30.617 -141.84,50.597 -55.32,19.973 -105.621,37.532 -142.313,49.422 -18.3394,5.949 -33.2339,10.61 -43.5933,13.629 -4.7852,1.36 -8.7305,2.488 -11.9414,3.399 -2.75,0.73 -4.211,1.05 -4.2539,0.902" /><path
         id="path34"
         style="fill:#33535f;fill-opacity:1;fill-rule:nonzero;stroke:none"
         d="m 4552.76,1456.65 -603.34,2.79 c -72.57,0.32 -131.14,59.24 -130.82,131.61 l 6.38,1508.37 c 0.32,72.4 59.44,130.84 132.04,130.51 l 603.34,-2.78 c 72.56,-0.33 131.13,-59.26 130.82,-131.61 l -6.39,-1508.39 c -0.31,-72.4 -59.44,-130.84 -132.03,-130.5" /><path
         id="path36"
         style="fill:#ffffff;fill-opacity:1;fill-rule:nonzero;stroke:none"
         d="m 4559.51,3175.09 -116.99,0.54 c -15.68,0.07 -28.45,-13.13 -28.52,-29.49 l -0.1,-21.15 c -0.06,-16.35 -12.84,-29.56 -28.53,-29.48 l -228.01,1.04 c -15.69,0.08 -28.35,13.4 -28.28,29.75 l 0.09,21.16 c 0.07,16.35 -12.59,29.67 -28.28,29.74 l -41.14,0.19 -102.38,0.47 c -50.85,0.24 -92.26,-40.69 -92.47,-91.4 l -6.24,-1472.28 c -0.22,-50.68 40.8,-91.94 91.62,-92.17 l 602.14,-2.78 c 50.84,-0.23 92.24,40.69 92.46,91.4 l 6.24,1472.29 c 0.21,50.68 -40.79,91.94 -91.61,92.17" /><path
         id="path38"
         style="fill:#33535f;fill-opacity:1;fill-rule:nonzero;stroke:none"
         d="m 4549.65,2133.44 h -595.81 v 39.86 h 595.81 v -39.86" /><path
         id="path40"
         style="fill:#33535f;fill-opacity:1;fill-rule:nonzero;stroke:none"
         d="m 4528.4,2016.38 c 0,-1.44 -127.18,-2.6 -284.01,-2.6 -156.91,0 -284.04,1.16 -284.04,2.6 0,1.44 127.13,2.61 284.04,2.61 156.83,0 284.01,-1.17 284.01,-2.61" /><path
         id="path42"
         style="fill:#33535f;fill-opacity:1;fill-rule:nonzero;stroke:none"
         d="m 4528.4,2961.76 c 0,-1.44 -127.18,-2.61 -284.01,-2.61 -156.91,0 -284.04,1.17 -284.04,2.61 0,1.44 127.13,2.6 284.04,2.6 156.83,0 284.01,-1.16 284.01,-2.6" /><path
         id="path44"
         style="fill:#33535f;fill-opacity:1;fill-rule:nonzero;stroke:none"
         d="m 4528.4,1943.83 c 0,-1.44 -127.18,-2.61 -284.01,-2.61 -156.91,0 -284.04,1.17 -284.04,2.61 0,1.44 127.13,2.6 284.04,2.6 156.83,0 284.01,-1.16 284.01,-2.6" /><path
         id="path46"
         style="fill:#33535f;fill-opacity:1;fill-rule:nonzero;stroke:none"
         d="m 4528.4,1871.27 c 0,-1.43 -127.18,-2.59 -284.01,-2.59 -156.91,0 -284.04,1.16 -284.04,2.59 0,1.45 127.13,2.61 284.04,2.61 156.83,0 284.01,-1.16 284.01,-2.61" /><path
         id="path48"
         style="fill:#33535f;fill-opacity:1;fill-rule:nonzero;stroke:none"
         d="m 4528.4,1798.72 c 0,-1.43 -127.18,-2.6 -284.01,-2.6 -156.91,0 -284.04,1.17 -284.04,2.6 0,1.44 127.13,2.61 284.04,2.61 156.83,0 284.01,-1.17 284.01,-2.61" /><path
         id="path50"
         style="fill:#33535f;fill-opacity:1;fill-rule:nonzero;stroke:none"
         d="m 4528.4,1726.18 c 0,-1.45 -127.18,-2.61 -284.01,-2.61 -156.91,0 -284.04,1.16 -284.04,2.61 0,1.43 127.13,2.59 284.04,2.59 156.83,0 284.01,-1.16 284.01,-2.59" /><path
         id="path52"
         style="fill:#33535f;fill-opacity:1;fill-rule:nonzero;stroke:none"
         d="m 4536.53,1643.91 c 0,-1.44 -127.18,-2.61 -284.02,-2.61 -156.89,0 -284.04,1.17 -284.04,2.61 0,1.44 127.15,2.61 284.04,2.61 156.84,0 284.02,-1.17 284.02,-2.61" /><path
         id="path54"
         style="fill:#dadbd8;fill-opacity:1;fill-rule:nonzero;stroke:none"
         d="m 4557.66,2301.14 h -597.31 v 577.89 h 597.31 v -577.89" /><path
         id="path56"
         style="fill:#f03d5f;fill-opacity:1;fill-rule:nonzero;stroke:none"
         d="m 4006.65,2350.6 165.24,297.38 135.15,-190.08 82.12,100.94 122.18,-208.24 h -504.69" /><path
         id="path58"
         style="fill:#f03d5f;fill-opacity:1;fill-rule:nonzero;stroke:none"
         d="m 4364.61,2705.81 c 0,-23.74 -19.25,-42.98 -42.99,-42.98 -23.74,0 -42.98,19.24 -42.98,42.98 0,23.74 19.24,42.99 42.98,42.99 23.74,0 42.99,-19.25 42.99,-42.99" /><path
         id="path60"
         style="fill:#33535f;fill-opacity:1;fill-rule:nonzero;stroke:none"
         d="m 4511.34,2348.99 c -0.04,0.05 -0.09,0.84 -0.14,2.37 -0.02,1.73 -0.07,3.93 -0.13,6.74 -0.07,6.15 -0.16,14.82 -0.29,26 -0.14,22.92 -0.36,56.06 -0.63,98.14 -0.3,84.41 -0.73,204.61 -1.25,348.93 l 2.44,-2.44 c -146.17,-0.11 -319.43,-0.26 -504.64,-0.4 -0.68,-0.6 5.34,5.35 2.8,2.76 v -0.12 -0.26 -0.52 -1.03 -2.07 -4.12 -8.23 -16.41 c 0,-10.92 0,-21.8 0,-32.62 -0.01,-21.66 -0.01,-43.11 -0.02,-64.35 -0.03,-42.47 -0.05,-84.05 -0.07,-124.53 -0.1,-80.93 -0.2,-157.45 -0.28,-227.83 l -2.48,2.47 c 150.64,-0.52 276.45,-0.95 364.91,-1.26 44.11,-0.28 78.88,-0.49 102.92,-0.65 11.74,-0.12 20.86,-0.22 27.3,-0.29 2.96,-0.06 5.26,-0.1 7.07,-0.14 1.61,-0.04 2.45,-0.09 2.49,-0.14 0.05,-0.04 -0.69,-0.1 -2.21,-0.14 -1.73,-0.03 -3.96,-0.08 -6.8,-0.14 -6.33,-0.06 -15.29,-0.17 -26.82,-0.29 -23.91,-0.15 -58.5,-0.37 -102.36,-0.65 -88.84,-0.31 -215.21,-0.74 -366.5,-1.26 l -2.48,-0.01 v 2.5 c -0.07,70.38 -0.17,146.9 -0.27,227.83 -0.02,40.48 -0.05,82.06 -0.07,124.53 -0.01,21.24 -0.01,42.69 -0.02,64.35 0,10.82 0,21.7 0,32.62 v 16.41 l -0.01,8.23 v 4.12 2.07 1.03 0.52 0.26 0.12 c -2.53,-2.49 3.46,3.57 2.9,2.93 185.21,-0.15 358.47,-0.29 504.64,-0.4 h 2.45 l -0.01,-2.45 c -0.51,-144.96 -0.94,-265.69 -1.25,-350.48 -0.26,-41.84 -0.49,-74.8 -0.63,-97.59 -0.12,-10.98 -0.22,-19.5 -0.29,-25.54 -0.05,-2.69 -0.09,-4.81 -0.13,-6.47 -0.04,-1.44 -0.09,-2.14 -0.14,-2.1" /><path
         id="path62"
         style="fill:#33535f;fill-opacity:1;fill-rule:nonzero;stroke:none"
         d="M 3661.29,3741.74 V 2409.49 c 0,-63.79 -51.71,-115.49 -115.5,-115.49 H 1533.41 c -63.79,0 -115.49,51.7 -115.49,115.49 v 1332.25 c 0,63.78 51.7,115.49 115.49,115.49 h 2012.38 c 63.79,0 115.5,-51.71 115.5,-115.49" /><path
         id="path64"
         style="fill:#ffffff;fill-opacity:1;fill-rule:nonzero;stroke:none"
         d="M 3444.89,3807.93 V 2343.29 H 1571.4 v 1464.64 h 1873.49" /><path
         id="path66"
         style="fill:#17282f;fill-opacity:1;fill-rule:nonzero;stroke:none"
         d="m 3548.56,3135.59 c 33.12,0 59.98,-26.85 59.98,-59.98 0,-33.13 -26.86,-59.98 -59.98,-59.98 -33.13,0 -59.98,26.85 -59.98,59.98 0,33.13 26.85,59.98 59.98,59.98" /><path
         id="path68"
         style="fill:#17282f;fill-opacity:1;fill-rule:nonzero;stroke:none"
         d="m 1507.31,3298.87 v -446.52 c 0,-6.71 -5.44,-12.15 -12.16,-12.15 h -0.47 c -6.71,0 -12.15,5.44 -12.15,12.15 v 446.52 c 0,6.72 5.44,12.15 12.15,12.15 h 0.47 c 6.72,0 12.16,-5.43 12.16,-12.15" /><path
         id="path70"
         style="fill:#33535f;fill-opacity:1;fill-rule:nonzero;stroke:none"
         d="m 3021.7,3658.02 h -595.81 v 39.86 h 595.81 v -39.86" /><path
         id="path72"
         style="fill:#33535f;fill-opacity:1;fill-rule:nonzero;stroke:none"
         d="m 2245.63,2972.77 h -595.8 v 39.86 h 595.8 v -39.86" /><path
         id="path74"
         style="fill:#33535f;fill-opacity:1;fill-rule:nonzero;stroke:none"
         d="m 3166.87,3549.45 c 0,-1.44 -165.89,-2.61 -370.47,-2.61 -204.66,0 -370.51,1.17 -370.51,2.61 0,1.43 165.85,2.6 370.51,2.6 204.58,0 370.47,-1.17 370.47,-2.6" /><path
         id="path76"
         style="fill:#33535f;fill-opacity:1;fill-rule:nonzero;stroke:none"
         d="m 3166.87,3462.41 c 0,-1.43 -165.89,-2.6 -370.47,-2.6 -204.66,0 -370.51,1.17 -370.51,2.6 0,1.44 165.85,2.61 370.51,2.61 204.58,0 370.47,-1.17 370.47,-2.61" /><path
         id="path78"
         style="fill:#33535f;fill-opacity:1;fill-rule:nonzero;stroke:none"
         d="m 3166.87,3375.38 c 0,-1.43 -165.89,-2.6 -370.47,-2.6 -204.66,0 -370.51,1.17 -370.51,2.6 0,1.44 165.85,2.6 370.51,2.6 204.58,0 370.47,-1.16 370.47,-2.6" /><path
         id="path80"
         style="fill:#33535f;fill-opacity:1;fill-rule:nonzero;stroke:none"
         d="m 3166.87,3288.35 c 0,-1.44 -165.89,-2.6 -370.47,-2.6 -204.66,0 -370.51,1.16 -370.51,2.6 0,1.44 165.85,2.6 370.51,2.6 204.58,0 370.47,-1.16 370.47,-2.6" /><path
         id="path82"
         style="fill:#33535f;fill-opacity:1;fill-rule:nonzero;stroke:none"
         d="m 3166.87,3201.32 c 0,-1.44 -165.89,-2.61 -370.47,-2.61 -204.66,0 -370.51,1.17 -370.51,2.61 0,1.44 165.85,2.61 370.51,2.61 204.58,0 370.47,-1.17 370.47,-2.61" /><path
         id="path84"
         style="fill:#33535f;fill-opacity:1;fill-rule:nonzero;stroke:none"
         d="m 3004.37,3114.29 c 0,-1.44 -129.5,-2.61 -289.23,-2.61 -159.77,0 -289.25,1.17 -289.25,2.61 0,1.44 129.48,2.6 289.25,2.6 159.73,0 289.23,-1.16 289.23,-2.6" /><path
         id="path86"
         style="fill:#33535f;fill-opacity:1;fill-rule:nonzero;stroke:none"
         d="m 2628.34,2855.71 c 0,-1.44 -217.61,-2.61 -485.98,-2.61 -268.47,0 -486.03,1.17 -486.03,2.61 0,1.43 217.56,2.6 486.03,2.6 268.37,0 485.98,-1.17 485.98,-2.6" /><path
         id="path88"
         style="fill:#33535f;fill-opacity:1;fill-rule:nonzero;stroke:none"
         d="m 2628.34,2783.15 c 0,-1.43 -217.61,-2.6 -485.98,-2.6 -268.47,0 -486.03,1.17 -486.03,2.6 0,1.44 217.56,2.61 486.03,2.61 268.37,0 485.98,-1.17 485.98,-2.61" /><path
         id="path90"
         style="fill:#33535f;fill-opacity:1;fill-rule:nonzero;stroke:none"
         d="m 2628.34,2710.6 c 0,-1.44 -217.61,-2.6 -485.98,-2.6 -268.47,0 -486.03,1.16 -486.03,2.6 0,1.44 217.56,2.61 486.03,2.61 268.37,0 485.98,-1.17 485.98,-2.61" /><path
         id="path92"
         style="fill:#33535f;fill-opacity:1;fill-rule:nonzero;stroke:none"
         d="m 2628.34,2638.05 c 0,-1.44 -217.61,-2.61 -485.98,-2.61 -268.47,0 -486.03,1.17 -486.03,2.61 0,1.44 217.56,2.6 486.03,2.6 268.37,0 485.98,-1.16 485.98,-2.6" /><path
         id="path94"
         style="fill:#33535f;fill-opacity:1;fill-rule:nonzero;stroke:none"
         d="m 2628.34,2565.5 c 0,-1.44 -217.61,-2.61 -485.98,-2.61 -268.47,0 -486.03,1.17 -486.03,2.61 0,1.43 217.56,2.6 486.03,2.6 268.37,0 485.98,-1.17 485.98,-2.6" /><path
         id="path96"
         style="fill:#f03d5f;fill-opacity:1;fill-rule:nonzero;stroke:none"
         d="m 2253.64,3140.46 h -597.31 v 577.89 h 597.31 v -577.89" /><path
         id="path98"
         style="fill:#dadbd8;fill-opacity:1;fill-rule:nonzero;stroke:none"
         d="m 1702.64,3189.93 165.23,297.37 135.16,-190.07 82.12,100.93 122.18,-208.23 h -504.69" /><path
         id="path100"
         style="fill:#dadbd8;fill-opacity:1;fill-rule:nonzero;stroke:none"
         d="m 2060.59,3545.14 c 0,-23.75 -19.24,-42.99 -42.98,-42.99 -23.74,0 -42.98,19.24 -42.98,42.99 0,23.74 19.24,42.99 42.98,42.99 23.74,0 42.98,-19.25 42.98,-42.99" /><path
         id="path102"
         style="fill:#33535f;fill-opacity:1;fill-rule:nonzero;stroke:none"
         d="m 2207.33,3188.31 c -0.05,0.05 -0.09,0.85 -0.14,2.37 -0.03,1.73 -0.08,3.94 -0.14,6.74 -0.06,6.15 -0.16,14.83 -0.28,26.01 -0.15,22.92 -0.36,56.06 -0.63,98.14 -0.31,84.41 -0.74,204.61 -1.25,348.93 l 2.44,-2.44 c -146.17,-0.12 -319.44,-0.26 -504.64,-0.4 -0.68,-0.61 5.34,5.35 2.79,2.76 v -0.13 -0.26 -0.51 -1.04 -2.06 -4.12 -8.23 -16.41 c 0,-10.93 0,-21.8 0,-32.63 -0.01,-21.65 -0.01,-43.11 -0.02,-64.34 -0.03,-42.48 -0.05,-84.05 -0.07,-124.53 -0.1,-80.93 -0.19,-157.45 -0.27,-227.84 l -2.48,2.48 c 150.63,-0.53 276.45,-0.96 364.9,-1.26 44.1,-0.28 78.88,-0.5 102.92,-0.65 11.75,-0.13 20.86,-0.23 27.31,-0.29 2.95,-0.06 5.27,-0.1 7.07,-0.14 1.6,-0.05 2.44,-0.1 2.49,-0.15 0.05,-0.04 -0.7,-0.09 -2.21,-0.13 -1.74,-0.04 -3.96,-0.09 -6.81,-0.15 -6.33,-0.06 -15.28,-0.16 -26.82,-0.28 -23.9,-0.15 -58.49,-0.37 -102.36,-0.65 -88.84,-0.31 -215.21,-0.74 -366.49,-1.26 l -2.48,-0.01 v 2.49 c -0.08,70.39 -0.18,146.91 -0.27,227.84 -0.02,40.48 -0.05,82.05 -0.08,124.53 0,21.23 -0.01,42.69 -0.01,64.34 -0.01,10.83 -0.01,21.7 -0.01,32.63 v 16.41 8.23 4.12 2.06 1.04 0.51 0.26 0.13 c -2.54,-2.5 3.46,3.56 2.9,2.92 185.2,-0.14 358.47,-0.28 504.64,-0.4 h 2.45 l -0.01,-2.44 c -0.52,-144.96 -0.95,-265.7 -1.25,-350.48 -0.27,-41.85 -0.48,-74.81 -0.64,-97.59 -0.12,-10.98 -0.21,-19.51 -0.28,-25.54 -0.05,-2.7 -0.1,-4.82 -0.14,-6.48 -0.04,-1.43 -0.08,-2.14 -0.13,-2.1" /><path
         id="path104"
         style="fill:#f03d5f;fill-opacity:1;fill-rule:nonzero;stroke:none"
         d="m 3185.14,2526.98 h -422.73 v 408.98 h 422.73 v -408.98" /><path
         id="path106"
         style="fill:#dadbd8;fill-opacity:1;fill-rule:nonzero;stroke:none"
         d="m 2795.19,2561.98 116.93,210.45 95.66,-134.51 58.11,71.43 86.47,-147.37 h -357.17" /><path
         id="path108"
         style="fill:#dadbd8;fill-opacity:1;fill-rule:nonzero;stroke:none"
         d="m 3048.52,2813.37 c 0,-16.8 -13.62,-30.42 -30.42,-30.42 -16.81,0 -30.42,13.62 -30.42,30.42 0,16.8 13.61,30.42 30.42,30.42 16.8,0 30.42,-13.62 30.42,-30.42" /><path
         id="path110"
         style="fill:#33535f;fill-opacity:1;fill-rule:nonzero;stroke:none"
         d="m 3152.36,2560.84 c -0.03,0.03 -0.06,0.6 -0.1,1.68 -0.02,1.22 -0.05,2.78 -0.09,4.76 -0.05,4.36 -0.12,10.5 -0.2,18.41 -0.11,16.22 -0.26,39.67 -0.45,69.45 -0.22,59.74 -0.52,144.81 -0.89,246.95 l 1.73,-1.73 c -103.44,-0.08 -226.07,-0.18 -357.14,-0.29 -0.48,-0.42 3.78,3.79 1.98,1.96 v -0.09 -0.18 -0.37 -0.73 -1.46 -2.92 -5.82 -11.62 c 0,-7.73 -0.01,-15.42 -0.01,-23.08 0,-15.33 0,-30.52 -0.01,-45.54 -0.02,-30.06 -0.03,-59.48 -0.05,-88.13 -0.07,-57.28 -0.13,-111.43 -0.19,-161.25 l -1.75,1.76 c 106.6,-0.38 195.64,-0.68 258.24,-0.9 31.21,-0.19 55.83,-0.35 72.84,-0.46 8.31,-0.08 14.76,-0.15 19.33,-0.2 2.09,-0.04 3.72,-0.07 5,-0.1 1.13,-0.03 1.73,-0.06 1.76,-0.1 0.04,-0.03 -0.49,-0.07 -1.57,-0.1 -1.23,-0.02 -2.8,-0.06 -4.81,-0.1 -4.48,-0.05 -10.81,-0.11 -18.98,-0.2 -16.92,-0.11 -41.4,-0.27 -72.45,-0.46 -62.87,-0.22 -152.3,-0.53 -259.36,-0.89 l -1.76,-0.01 v 1.76 c -0.06,49.82 -0.13,103.97 -0.19,161.25 -0.01,28.65 -0.03,58.07 -0.05,88.13 0,15.02 -0.01,30.21 -0.01,45.54 0,7.66 0,15.35 0,23.08 v 11.62 l -0.01,5.82 v 2.92 1.46 0.73 0.37 0.18 0.09 c -1.8,-1.77 2.45,2.52 2.05,2.07 131.07,-0.1 253.7,-0.2 357.14,-0.28 h 1.74 l -0.01,-1.73 c -0.37,-102.59 -0.67,-188.04 -0.88,-248.04 -0.2,-29.62 -0.36,-52.94 -0.45,-69.07 -0.09,-7.77 -0.16,-13.8 -0.21,-18.07 -0.04,-1.91 -0.07,-3.41 -0.1,-4.59 -0.02,-1.01 -0.05,-1.51 -0.09,-1.48" /><path
         id="path112"
         style="fill:#17282f;fill-opacity:1;fill-rule:nonzero;stroke:none"
         d="M 3489.47,62.2109 H 644.93 c -80.453,0 -145.672,65.2191 -145.672,145.6681 V 1990.26 c 0,80.46 65.219,145.68 145.672,145.68 h 2844.54 c 80.45,0 145.67,-65.22 145.67,-145.68 V 207.879 c 0,-80.449 -65.22,-145.6681 -145.67,-145.6681" /><path
         id="path114"
         style="fill:#17282f;fill-opacity:1;fill-rule:nonzero;stroke:none"
         d="M 3587.63,34.1289 H 546.098 c -98.297,0 -177.981,79.6801 -177.981,177.9801 v 3.469 H 3765.61 v -3.469 c 0,-98.3 -79.69,-177.9801 -177.98,-177.9801" /><path
         id="path116"
         style="fill:#dadbd8;fill-opacity:1;fill-rule:nonzero;stroke:none"
         d="M 3542.19,302.32 H 583.43 V 2053.54 H 3542.19 V 302.32" /><path
         id="path118"
         style="fill:#33535f;fill-opacity:1;fill-rule:nonzero;stroke:none"
         d="m 1758.06,215.578 42.16,-67.058 h 593.25 l 39.15,67.058 h -674.56" /><path
         id="path120"
         style="fill:#fafaf9;fill-opacity:1;fill-rule:nonzero;stroke:none"
         d="M 3406.22,302.988 H 682.109 V 1936.93 H 3406.22 V 302.988" /><path
         id="path122"
         style="fill:#33535f;fill-opacity:1;fill-rule:nonzero;stroke:none"
         d="m 798.387,1856.34 c 0,-12.62 -10.231,-22.85 -22.856,-22.85 -12.621,0 -22.851,10.23 -22.851,22.85 0,12.63 10.23,22.86 22.851,22.86 12.625,0 22.856,-10.23 22.856,-22.86" /><path
         id="path124"
         style="fill:#33535f;fill-opacity:1;fill-rule:nonzero;stroke:none"
         d="m 891.66,1856.34 c 0,-12.62 -10.234,-22.85 -22.859,-22.85 -12.621,0 -22.856,10.23 -22.856,22.85 0,12.63 10.235,22.86 22.856,22.86 12.625,0 22.859,-10.23 22.859,-22.86" /><path
         id="path126"
         style="fill:#33535f;fill-opacity:1;fill-rule:nonzero;stroke:none"
         d="m 984.93,1856.34 c 0,-12.62 -10.235,-22.85 -22.856,-22.85 -12.621,0 -22.855,10.23 -22.855,22.85 0,12.63 10.234,22.86 22.855,22.86 12.621,0 22.856,-10.23 22.856,-22.86" /><path
         id="path128"
         style="fill:#33535f;fill-opacity:1;fill-rule:nonzero;stroke:none"
         d="m 3406.22,1756.34 c 0,-1.43 -609.86,-2.6 -1361.99,-2.6 -752.39,0 -1362.121,1.17 -1362.121,2.6 0,1.45 609.731,2.61 1362.121,2.61 752.13,0 1361.99,-1.16 1361.99,-2.61" /><path
         id="path130"
         style="fill:#33535f;fill-opacity:1;fill-rule:nonzero;stroke:none"
         d="M 3635.14,204.18 H 499.258 v 10 H 3635.14 v -10" /><path
         id="path132"
         style="fill:#33535f;fill-opacity:1;fill-rule:nonzero;stroke:none"
         d="M 1501.26,922.648 H 905.457 V 962.5 h 595.803 v -39.852" /><path
         id="path134"
         style="fill:#33535f;fill-opacity:1;fill-rule:nonzero;stroke:none"
         d="m 2270.83,1476 h -595.81 v 39.86 h 595.81 V 1476" /><path
         id="path136"
         style="fill:#33535f;fill-opacity:1;fill-rule:nonzero;stroke:none"
         d="m 3156.98,1367.43 c 0,-1.44 -331.78,-2.61 -740.95,-2.61 -409.31,0 -741.01,1.17 -741.01,2.61 0,1.43 331.7,2.6 741.01,2.6 409.17,0 740.95,-1.17 740.95,-2.6" /><path
         id="path138"
         style="fill:#33535f;fill-opacity:1;fill-rule:nonzero;stroke:none"
         d="m 3156.98,1280.39 c 0,-1.43 -331.78,-2.6 -740.95,-2.6 -409.31,0 -741.01,1.17 -741.01,2.6 0,1.44 331.7,2.61 741.01,2.61 409.17,0 740.95,-1.17 740.95,-2.61" /><path
         id="path140"
         style="fill:#33535f;fill-opacity:1;fill-rule:nonzero;stroke:none"
         d="m 3156.98,1193.36 c 0,-1.43 -331.78,-2.6 -740.95,-2.6 -409.31,0 -741.01,1.17 -741.01,2.6 0,1.44 331.7,2.61 741.01,2.61 409.17,0 740.95,-1.17 740.95,-2.61" /><path
         id="path142"
         style="fill:#33535f;fill-opacity:1;fill-rule:nonzero;stroke:none"
         d="m 3156.98,1106.33 c 0,-1.43 -331.78,-2.61 -740.95,-2.61 -409.31,0 -741.01,1.18 -741.01,2.61 0,1.44 331.7,2.61 741.01,2.61 409.17,0 740.95,-1.17 740.95,-2.61" /><path
         id="path144"
         style="fill:#33535f;fill-opacity:1;fill-rule:nonzero;stroke:none"
         d="m 3156.98,1019.3 c 0,-1.44 -331.78,-2.61 -740.95,-2.61 -409.31,0 -741.01,1.17 -741.01,2.61 0,1.44 331.7,2.61 741.01,2.61 409.17,0 740.95,-1.17 740.95,-2.61" /><path
         id="path146"
         style="fill:#33535f;fill-opacity:1;fill-rule:nonzero;stroke:none"
         d="m 2253.5,932.27 c 0,-1.442 -129.5,-2.61 -289.22,-2.61 -159.78,0 -289.26,1.168 -289.26,2.61 0,1.429 129.48,2.609 289.26,2.609 159.72,0 289.22,-1.18 289.22,-2.609" /><path
         id="path148"
         style="fill:#33535f;fill-opacity:1;fill-rule:nonzero;stroke:none"
         d="m 3146.14,763.359 c 0,-1.429 -218.07,-2.597 -487.01,-2.597 -269.02,0 -487.05,1.168 -487.05,2.597 0,1.442 218.03,2.61 487.05,2.61 268.94,0 487.01,-1.168 487.01,-2.61" /><path
         id="path150"
         style="fill:#33535f;fill-opacity:1;fill-rule:nonzero;stroke:none"
         d="m 3146.14,670.98 c 0,-1.449 -218.07,-2.609 -487.01,-2.609 -269.02,0 -487.05,1.16 -487.05,2.609 0,1.442 218.03,2.602 487.05,2.602 268.94,0 487.01,-1.16 487.01,-2.602" /><path
         id="path152"
         style="fill:#33535f;fill-opacity:1;fill-rule:nonzero;stroke:none"
         d="m 3146.14,578.59 c 0,-1.442 -218.07,-2.602 -487.01,-2.602 -269.02,0 -487.05,1.16 -487.05,2.602 0,1.441 218.03,2.601 487.05,2.601 268.94,0 487.01,-1.16 487.01,-2.601" /><path
         id="path154"
         style="fill:#33535f;fill-opacity:1;fill-rule:nonzero;stroke:none"
         d="m 3146.14,486.199 c 0,-1.429 -218.07,-2.59 -487.01,-2.59 -269.02,0 -487.05,1.161 -487.05,2.59 0,1.449 218.03,2.61 487.05,2.61 268.94,0 487.01,-1.161 487.01,-2.61" /><path
         id="path156"
         style="fill:#33535f;fill-opacity:1;fill-rule:nonzero;stroke:none"
         d="m 1502.77,772.199 c 0,-1.429 -129.99,-2.609 -290.31,-2.609 -160.37,0 -290.339,1.18 -290.339,2.609 0,1.442 129.969,2.61 290.339,2.61 160.32,0 290.31,-1.168 290.31,-2.61" /><path
         id="path158"
         style="fill:#33535f;fill-opacity:1;fill-rule:nonzero;stroke:none"
         d="m 1502.77,699.648 c 0,-1.437 -129.99,-2.609 -290.31,-2.609 -160.37,0 -290.339,1.172 -290.339,2.609 0,1.442 129.969,2.602 290.339,2.602 160.32,0 290.31,-1.16 290.31,-2.602" /><path
         id="path160"
         style="fill:#33535f;fill-opacity:1;fill-rule:nonzero;stroke:none"
         d="m 1502.77,627.09 c 0,-1.43 -129.99,-2.598 -290.31,-2.598 -160.37,0 -290.339,1.168 -290.339,2.598 0,1.441 129.969,2.609 290.339,2.609 160.32,0 290.31,-1.168 290.31,-2.609" /><path
         id="path162"
         style="fill:#33535f;fill-opacity:1;fill-rule:nonzero;stroke:none"
         d="m 1502.77,554.539 c 0,-1.437 -129.99,-2.598 -290.31,-2.598 -160.37,0 -290.339,1.161 -290.339,2.598 0,1.441 129.969,2.602 290.339,2.602 160.32,0 290.31,-1.161 290.31,-2.602" /><path
         id="path164"
         style="fill:#33535f;fill-opacity:1;fill-rule:nonzero;stroke:none"
         d="m 1502.77,481.992 c 0,-1.441 -129.99,-2.601 -290.31,-2.601 -160.37,0 -290.339,1.16 -290.339,2.601 0,1.438 129.969,2.598 290.339,2.598 160.32,0 290.31,-1.16 290.31,-2.598" /><path
         id="path166"
         style="fill:#dadbd8;fill-opacity:1;fill-rule:nonzero;stroke:none"
         d="M 1502.77,1068.2 H 905.457 v 577.89 H 1502.77 V 1068.2" /><path
         id="path168"
         style="fill:#f03d5f;fill-opacity:1;fill-rule:nonzero;stroke:none"
         d="m 951.77,1117.66 165.24,297.37 135.15,-190.07 82.12,100.94 122.18,-208.24 H 951.77" /><path
         id="path170"
         style="fill:#f03d5f;fill-opacity:1;fill-rule:nonzero;stroke:none"
         d="m 1309.72,1472.87 c 0,-23.74 -19.24,-42.98 -42.98,-42.98 -23.74,0 -42.99,19.24 -42.99,42.98 0,23.74 19.25,42.99 42.99,42.99 23.74,0 42.98,-19.25 42.98,-42.99" /><path
         id="path172"
         style="fill:#33535f;fill-opacity:1;fill-rule:nonzero;stroke:none"
         d="m 1456.46,1116.05 c -0.05,0.05 -0.09,0.85 -0.14,2.37 -0.03,1.73 -0.08,3.94 -0.14,6.74 -0.06,6.14 -0.16,14.82 -0.28,26.01 -0.15,22.91 -0.36,56.05 -0.63,98.14 -0.31,84.4 -0.74,204.61 -1.25,348.93 l 2.44,-2.45 c -146.17,-0.11 -319.44,-0.25 -504.64,-0.41 -0.683,-0.59 5.336,5.36 2.793,2.78 v -0.14 -0.25 -0.52 -1.04 -2.06 -4.12 -8.23 -16.42 c 0,-10.91 -0.004,-21.78 -0.004,-32.61 -0.007,-21.66 -0.011,-43.12 -0.019,-64.35 -0.027,-42.47 -0.047,-84.04 -0.07,-124.52 -0.098,-80.94 -0.192,-157.45 -0.274,-227.84 l -2.476,2.47 c 150.63,-0.52 276.45,-0.96 364.9,-1.26 44.11,-0.27 78.88,-0.49 102.92,-0.65 11.75,-0.12 20.86,-0.22 27.31,-0.29 2.95,-0.06 5.27,-0.11 7.07,-0.14 1.6,-0.04 2.44,-0.09 2.49,-0.14 0.05,-0.04 -0.7,-0.09 -2.21,-0.14 -1.74,-0.04 -3.96,-0.09 -6.81,-0.14 -6.33,-0.06 -15.28,-0.16 -26.82,-0.29 -23.9,-0.15 -58.5,-0.37 -102.36,-0.65 -88.84,-0.31 -215.2,-0.73 -366.49,-1.25 l -2.481,-0.01 v 2.49 c -0.082,70.39 -0.176,146.9 -0.273,227.84 -0.024,40.48 -0.047,82.05 -0.071,124.52 -0.007,21.23 -0.011,42.69 -0.015,64.35 -0.004,10.83 -0.004,21.7 -0.004,32.61 v 16.42 l -0.008,8.23 v 4.12 2.06 1.04 0.52 0.25 0.14 c -2.531,-2.5 3.457,3.55 2.902,2.92 185.2,-0.15 358.47,-0.29 504.64,-0.4 h 2.45 l -0.01,-2.44 c -0.52,-144.97 -0.95,-265.7 -1.25,-350.49 -0.27,-41.85 -0.49,-74.81 -0.64,-97.59 -0.12,-10.98 -0.21,-19.5 -0.27,-25.54 -0.07,-2.69 -0.11,-4.81 -0.14,-6.47 -0.05,-1.44 -0.09,-2.14 -0.14,-2.1" /><path
         id="path174"
         style="fill:#dadbd8;fill-opacity:1;fill-rule:nonzero;stroke:none"
         d="m 2097.39,398.461 h -422.73 v 408.98 h 422.73 v -408.98" /><path
         id="path176"
         style="fill:#f03d5f;fill-opacity:1;fill-rule:nonzero;stroke:none"
         d="m 1707.43,433.461 116.94,210.461 95.65,-134.512 58.12,71.418 86.47,-147.367 h -357.18" /><path
         id="path178"
         style="fill:#f03d5f;fill-opacity:1;fill-rule:nonzero;stroke:none"
         d="m 1960.77,684.859 c 0,-16.808 -13.62,-30.429 -30.42,-30.429 -16.81,0 -30.42,13.621 -30.42,30.429 0,16.789 13.61,30.422 30.42,30.422 16.8,0 30.42,-13.633 30.42,-30.422" /><path
         id="path180"
         style="fill:#33535f;fill-opacity:1;fill-rule:nonzero;stroke:none"
         d="m 2064.61,432.332 c -0.03,0.027 -0.07,0.59 -0.1,1.668 -0.02,1.23 -0.05,2.789 -0.09,4.77 -0.05,4.351 -0.12,10.492 -0.2,18.402 -0.11,16.219 -0.26,39.68 -0.45,69.457 -0.22,59.742 -0.52,144.812 -0.89,246.941 l 1.73,-1.718 c -103.44,-0.09 -226.07,-0.192 -357.14,-0.293 -0.48,-0.418 3.78,3.793 1.98,1.961 v -0.098 -0.172 -0.379 -0.73 -1.45 -2.921 -5.821 -11.617 c 0,-7.73 0,-15.422 0,-23.094 -0.01,-15.316 -0.01,-30.508 -0.02,-45.539 -0.02,-30.058 -0.03,-59.48 -0.05,-88.117 -0.07,-57.281 -0.13,-111.441 -0.19,-161.25 l -1.76,1.758 c 106.61,-0.379 195.65,-0.692 258.25,-0.899 31.22,-0.203 55.83,-0.351 72.84,-0.461 8.31,-0.089 14.76,-0.16 19.33,-0.21 2.08,-0.04 3.72,-0.071 5,-0.09 1.13,-0.032 1.73,-0.071 1.76,-0.098 0.04,-0.031 -0.49,-0.07 -1.56,-0.102 -1.24,-0.031 -2.81,-0.058 -4.82,-0.109 -4.48,-0.043 -10.81,-0.101 -18.98,-0.191 -16.92,-0.11 -41.4,-0.27 -72.44,-0.469 -62.88,-0.223 -152.31,-0.52 -259.38,-0.891 h -1.75 v 1.762 c -0.06,49.809 -0.12,103.969 -0.19,161.25 -0.02,28.637 -0.04,58.059 -0.05,88.117 -0.01,15.031 -0.01,30.223 -0.01,45.539 -0.01,7.672 -0.01,15.364 -0.01,23.094 v 11.617 5.821 2.921 1.45 0.73 0.379 0.172 0.098 c -1.79,-1.77 2.44,2.519 2.05,2.07 131.07,-0.11 253.7,-0.211 357.14,-0.281 l 1.74,-0.008 -0.01,-1.731 c -0.37,-102.59 -0.67,-188.031 -0.89,-248.039 -0.19,-29.609 -0.34,-52.941 -0.45,-69.062 -0.08,-7.778 -0.15,-13.797 -0.2,-18.078 -0.04,-1.903 -0.07,-3.411 -0.09,-4.582 -0.03,-1.008 -0.06,-1.508 -0.1,-1.477" /><path
         id="path182"
         style="fill:#f03d5f;fill-opacity:1;fill-rule:nonzero;stroke:none"
         d="m 5627.02,211.512 -100.11,11.867 -23.45,-187.3985 146.3,-18.9219 2.2,11.5312 c 9.33,51.3516 43.86,261.7622 37.71,297.6402 -6.87,40.02 -62.65,-114.718 -62.65,-114.718" /><path
         id="path184"
         style="fill:#17282f;fill-opacity:1;fill-rule:nonzero;stroke:none"
         d="m 5681.03,339.648 c 1.77,-0.199 -5.12,-70.527 -15.37,-157.046 -10.27,-86.5434 -20.02,-156.5122 -21.79,-156.3012 -1.77,0.2109 5.11,70.5195 15.37,157.0582 10.26,86.532 20.01,156.512 21.79,156.289" /><path
         id="path186"
         style="fill:#17282f;fill-opacity:1;fill-rule:nonzero;stroke:none"
         d="m 5647.85,220.289 c -1.02,-1.437 -6.25,0.551 -10.99,5.211 -4.77,4.641 -6.87,9.84 -5.46,10.879 1.44,1.09 5.59,-2 9.97,-6.258 4.36,-4.301 7.55,-8.383 6.48,-9.832" /><path
         id="path188"
         style="fill:#17282f;fill-opacity:1;fill-rule:nonzero;stroke:none"
         d="m 5655.87,231.469 c -0.83,-1.547 -6.76,0.019 -12.57,4.461 -5.84,4.422 -8.93,9.711 -7.65,10.929 1.3,1.25 6.17,-1.711 11.56,-5.789 5.37,-4.109 9.53,-8.019 8.66,-9.601" /><path
         id="path190"
         style="fill:#17282f;fill-opacity:1;fill-rule:nonzero;stroke:none"
         d="m 5649.91,82.8789 c 0.43,-0.8008 -2.53,-3.3008 -7.47,-6.8672 -4.88,-3.6015 -11.74,-8.2929 -17.75,-14.7304 -5.95,-6.4024 -9.41,-13.6797 -10.74,-19.211 -1.4,-5.539 -1.07,-9.332 -2.02,-9.5312 -0.75,-0.2383 -2.84,3.5117 -2.49,10.1992 0.26,6.6015 3.67,15.582 10.51,22.9336 6.81,7.2773 14.58,11.5976 20.16,14.2695 5.65,2.6289 9.36,3.6992 9.8,2.9375" /><path
         id="path192"
         style="fill:#17282f;fill-opacity:1;fill-rule:nonzero;stroke:none"
         d="m 5629.09,223.09 c 1.62,0.711 4.8,-2.981 6.04,-8.551 1.25,-5.551 -0.06,-10.238 -1.82,-10.277 -1.8,-0.063 -3.38,3.988 -4.49,8.879 -1.07,4.898 -1.38,9.23 0.27,9.949" /><path
         id="path194"
         style="fill:#17282f;fill-opacity:1;fill-rule:nonzero;stroke:none"
         d="m 5619.08,221.289 c 1.78,-0.051 2.69,-5.219 2.03,-11.559 -0.67,-6.339 -2.64,-11.21 -4.4,-10.878 -1.75,0.32 -2.65,5.5 -2.03,11.546 0.65,6.071 2.62,10.942 4.4,10.891" /><path
         id="path196"
         style="fill:#17282f;fill-opacity:1;fill-rule:nonzero;stroke:none"
         d="M 5566,21.0508 5011.67,77.25 3862.38,51.5508 4167.96,297.961 4935.07,334.82 5605.75,242.398 5566,21.0508" /><path
         id="path198"
         style="fill:#33535f;fill-opacity:1;fill-rule:nonzero;stroke:none"
         d="m 4629.11,174.949 c 0,-1.437 -107.89,-2.597 -240.94,-2.597 -133.11,0 -240.97,1.16 -240.97,2.597 0,1.442 107.86,2.602 240.97,2.602 133.05,0 240.94,-1.16 240.94,-2.602" /><path
         id="path200"
         style="fill:#040606;fill-opacity:1;fill-rule:nonzero;stroke:none"
         d="m 4575.47,317.539 39.47,-247.8984 h 75.56 l -57.52,250.6604 -57.51,-2.762" /><path
         id="path202"
         style="fill:#f03d5f;fill-opacity:1;fill-rule:nonzero;stroke:none"
         d="M 4868.1,66.3789 4856.89,166.582 4669.07,146.77 4683.92,0 4695.65,0.488281 C 4747.78,3.07813 4960.53,17.332 4994.07,31.4805 5031.47,47.2813 4868.1,66.3789 4868.1,66.3789" /><path
         id="path204"
         style="fill:#17282f;fill-opacity:1;fill-rule:nonzero;stroke:none"
         d="m 4997.47,41.1484 c 0.2,-1.7578 -69.84,-11.0664 -156.42,-20.7578 -86.61,-9.6914 -156.96,-16.10935 -157.17,-14.33982 -0.2,1.76953 69.83,11.05862 156.45,20.75782 86.59,9.7031 156.95,16.1133 157.14,14.3398" /><path
         id="path206"
         style="fill:#17282f;fill-opacity:1;fill-rule:nonzero;stroke:none"
         d="m 4873.69,46.3008 c -1.63,0.6797 -0.88,6.2109 2.57,11.8984 3.44,5.6914 8.02,8.9219 9.36,7.7891 1.4,-1.1563 -0.68,-5.8985 -3.83,-11.1367 -3.19,-5.2227 -6.44,-9.25 -8.1,-8.5508" /><path
         id="path208"
         style="fill:#17282f;fill-opacity:1;fill-rule:nonzero;stroke:none"
         d="m 4886.41,41.0391 c -1.71,0.4492 -1.52,6.582 1.47,13.25 2.99,6.6914 7.44,10.9101 8.91,9.9414 1.51,-0.9688 -0.25,-6.3907 -3.01,-12.5821 -2.78,-6.1679 -5.64,-11.0976 -7.37,-10.6093" /><path
         id="path210"
         style="fill:#17282f;fill-opacity:1;fill-rule:nonzero;stroke:none"
         d="m 4740.35,13.0391 c -0.67,-0.5977 -3.78,1.7226 -8.38,5.6992 -4.62,3.9414 -10.75,9.5508 -18.38,13.9531 -7.59,4.3281 -15.47,6.0391 -21.16,6.0703 -5.71,0.1172 -9.32,-1.082 -9.74,-0.1797 -0.39,0.6563 2.78,3.5469 9.36,4.7383 6.5,1.2383 16.02,-0.0312 24.73,-5.0312 8.64,-4.9688 14.61,-11.5586 18.49,-16.3789 3.84,-4.8907 5.73,-8.2618 5.08,-8.8711" /><path
         id="path212"
         style="fill:#17282f;fill-opacity:1;fill-rule:nonzero;stroke:none"
         d="m 4872.15,65.1992 c 1.07,-1.3984 -1.8,-5.3398 -6.94,-7.8086 -5.13,-2.4804 -9.99,-2.2812 -10.43,-0.582 -0.47,1.75 3.11,4.2031 7.63,6.4102 4.52,2.1523 8.67,3.4296 9.74,1.9804" /><path
         id="path214"
         style="fill:#17282f;fill-opacity:1;fill-rule:nonzero;stroke:none"
         d="m 4868.12,74.5508 c 0.36,-1.7422 -4.47,-3.8086 -10.79,-4.6094 -6.32,-0.8008 -11.52,0.0195 -11.59,1.8086 -0.09,1.7813 4.74,3.8398 10.79,4.6016 6.04,0.7578 11.24,-0.0508 11.59,-1.8008" /><path
         id="path216"
         style="fill:#c0776a;fill-opacity:1;fill-rule:nonzero;stroke:none"
         d="m 3768.68,1210.24 160.28,2.9 c 2.14,18.55 5.25,90.68 5.25,90.68 0,0 67,6.22 71.92,72.51 4.91,66.3 2.81,219.36 2.81,219.36 v 0 c -74.77,37.74 -164.1,32.07 -233.5,-14.83 l -10.3,-6.96 3.54,-363.66" /><path
         id="path218"
         style="fill:#17282f;fill-opacity:1;fill-rule:nonzero;stroke:none"
         d="m 3986.63,1482.61 c -3.72,3.82 -3.64,9.92 0.18,13.65 3.82,3.72 9.92,3.64 13.65,-0.17 3.72,-3.82 3.64,-9.93 -0.17,-13.66 -3.82,-3.72 -9.94,-3.64 -13.66,0.18" /><path
         id="path220"
         style="fill:#17282f;fill-opacity:1;fill-rule:nonzero;stroke:none"
         d="m 4003.65,1496.76 c -1.11,-1.08 -7.32,4.33 -16.45,4.94 -9.13,0.73 -16.05,-3.71 -17,-2.47 -0.46,0.55 0.7,2.56 3.74,4.58 2.97,2.01 7.98,3.82 13.67,3.4 5.68,-0.42 10.37,-2.94 13.02,-5.37 2.7,-2.44 3.55,-4.6 3.02,-5.08" /><path
         id="path222"
         style="fill:#17282f;fill-opacity:1;fill-rule:nonzero;stroke:none"
         d="m 3897.88,1495.29 c 4.36,-3.07 5.41,-9.09 2.34,-13.45 -3.07,-4.36 -9.08,-5.41 -13.45,-2.34 -4.35,3.06 -5.41,9.09 -2.34,13.44 3.06,4.37 9.09,5.41 13.45,2.35" /><path
         id="path224"
         style="fill:#17282f;fill-opacity:1;fill-rule:nonzero;stroke:none"
         d="m 3903.9,1494.84 c -1.11,-1.09 -7.31,4.32 -16.45,4.94 -9.13,0.74 -16.06,-3.71 -17,-2.47 -0.46,0.54 0.71,2.56 3.73,4.58 2.98,2.01 7.98,3.82 13.67,3.4 5.7,-0.42 10.39,-2.94 13.03,-5.37 2.7,-2.45 3.56,-4.6 3.02,-5.08" /><path
         id="path226"
         style="fill:#17282f;fill-opacity:1;fill-rule:nonzero;stroke:none"
         d="m 3935.89,1417.19 c -0.02,0.72 5.71,1.51 14.97,2.22 2.41,0.11 4.32,0.53 4.57,1.81 0.52,1.42 -0.25,4.03 -1.29,6.96 -1.98,6.18 -3.98,12.44 -6.08,19 -8.35,27.07 -14,49.36 -12.63,49.78 1.37,0.43 9.25,-21.17 17.6,-48.24 1.96,-6.61 3.84,-12.91 5.69,-19.14 0.72,-2.81 2.17,-6.14 0.7,-10.01 -0.78,-1.93 -2.76,-3.25 -4.36,-3.56 -1.61,-0.38 -2.96,-0.3 -4.11,-0.28 -9.29,0.24 -15.04,0.74 -15.06,1.46" /><path
         id="path228"
         style="fill:#ffffff;fill-opacity:1;fill-rule:nonzero;stroke:none"
         d="m 3905.58,1408.93 c -9.17,6.26 25.35,-15.55 44.01,-15.79 0,0 -11.73,-16.39 -30.42,-8.21 -19.41,8.49 -13.59,24 -13.59,24" /><path
         id="path230"
         style="fill:#ac584f;fill-opacity:1;fill-rule:nonzero;stroke:none"
         d="m 3934.39,1304.77 c 0,0 -42.15,-0.83 -84.98,29.91 0,0 17.5,-49 84.07,-47.11 l 0.91,17.2" /><path
         id="path232"
         style="fill:#17282f;fill-opacity:1;fill-rule:nonzero;stroke:none"
         d="m 4013.75,1619.55 c 15.22,0.44 27.52,17.45 23.18,32.04 -4.34,14.58 -23.93,22.09 -36.92,14.16 7.45,7.06 15.11,14.41 19.04,23.89 3.92,9.47 3.1,21.73 -4.7,28.39 -7.69,6.56 -19.42,5.68 -28.71,1.71 -14.1,-6.02 -25.22,-17.92 -39.69,-22.96 -14.64,-5.09 -30.66,-2.52 -46.14,-3.2 -17.12,-0.74 -34.41,-5.8 -47.77,-16.52 -13.36,-10.72 -22.32,-27.53 -21.35,-44.63 -21.64,2.69 -45.66,3 -62.77,-10.5 -14.44,-11.4 -20.82,-30.68 -20.87,-49.08 -0.04,-18.38 7.57,-35.83 12.96,-53.42 v 0.06 c 3.23,-10.26 6.62,-13.85 6.62,-13.85 l 8.07,-47.57 29.55,0.57 -1.91,99.08 c 0,0 -2.97,41.72 32.94,38.06 35.9,-3.65 84.71,-44.16 154.65,-33.94 11.32,1.65 23.12,2.92 32.59,9.34 9.48,6.43 16.28,17.66 14.96,29.03 -1.31,11.37 -12.47,21.42 -23.73,19.34" /><path
         id="path234"
         style="fill:#c0776a;fill-opacity:1;fill-rule:nonzero;stroke:none"
         d="m 3777.88,1515.03 c -1.44,0.55 -49.22,6.76 -44.71,-49.67 4.52,-56.42 60.01,-33.2 59.98,-31.58 -0.03,1.63 -15.27,81.25 -15.27,81.25" /><path
         id="path236"
         style="fill:#ac584f;fill-opacity:1;fill-rule:nonzero;stroke:none"
         d="m 3774.28,1452.2 c -0.26,0.17 -0.93,-0.76 -2.53,-1.66 -1.56,-0.87 -4.31,-1.6 -7.33,-0.74 -6.15,1.72 -11.92,10.78 -13,20.93 -0.56,5.12 0.13,10.09 1.62,14.29 1.4,4.27 3.83,7.37 6.79,8.14 2.93,0.93 5.2,-0.71 6.01,-2.23 0.89,-1.52 0.62,-2.67 0.93,-2.75 0.17,-0.13 1.13,1.04 0.49,3.34 -0.32,1.1 -1.08,2.38 -2.5,3.36 -1.45,0.99 -3.48,1.39 -5.55,0.99 -4.33,-0.64 -7.93,-4.96 -9.57,-9.57 -1.88,-4.64 -2.77,-10.24 -2.15,-15.99 1.27,-11.34 7.94,-21.52 16.28,-23.23 4.06,-0.71 7.28,0.75 8.88,2.22 1.63,1.53 1.84,2.82 1.63,2.9" /><path
         id="path238"
         style="fill:#33535f;fill-opacity:1;fill-rule:nonzero;stroke:none"
         d="M 3638.94,221.191 C 3668.99,176.5 3850.86,-97.2891 4067.98,101.762 4344.73,355.48 4563.9,577.52 4563.9,577.52 l 82.18,-501.5083 257.69,13.9375 c 0,0 -100.37,746.7618 -163.87,814.6598 -70.83,75.743 -136.12,69.352 -692.85,-369.937 L 3638.94,221.191" /><path
         id="path240"
         style="fill:#17282f;fill-opacity:1;fill-rule:nonzero;stroke:none"
         d="m 4560.34,1071.93 240.54,175.51 11.85,-18.85 -239,-177.68 -13.39,21.02" /><path
         id="path242"
         style="fill:#c0776a;fill-opacity:1;fill-rule:nonzero;stroke:none"
         d="m 4619.78,1077.33 c 0,0 32.27,83.98 39.54,101.87 7.27,17.89 19.55,49.06 24.14,49.68 4.59,0.63 21.41,-2 -0.56,-55.43 -21.95,-53.43 25.99,-20.77 25.99,-20.77 l 46.33,33.15 c 0,0 36.64,-109.36 15.77,-142.3 -22.52,-35.55 -54.88,-69.569 -54.88,-69.569 l -96.33,103.369" /><path
         id="path244"
         style="fill:#f03d5f;fill-opacity:1;fill-rule:nonzero;stroke:none"
         d="M 4622.48,1087.03 C 4617.73,1098 4311.76,827.738 4250.87,818.57 l -178.42,232.34 c 0,0 -37.07,58.76 -116.57,159.37 -51.32,64.94 -192.94,51.44 -230.17,-27.67 -63.24,-134.38 -63.94,-283.848 -97.66,-574.571 l -14.24,-196.168 c -3.04,-41.832 -2.68,-83.871 1.91,-125.551 5.37,-48.761 16.43,-99.621 39.04,-92.761 l 408.06,337.332 13.08,153.199 c 85.82,-87 112.48,-105.18 157.14,-98.262 112.32,17.414 505.34,370.922 505.34,370.922 0,0 -111.15,119.32 -115.9,130.28" /><path
         id="path246"
         style="fill:#17282f;fill-opacity:1;fill-rule:nonzero;stroke:none"
         d="m 4685.47,907.238 c -0.43,-0.508 -9.04,5.762 -21.94,17.16 -12.89,11.372 -29.89,28.082 -46.94,48.09 -17.04,20.032 -30.82,39.492 -39.99,54.032 -9.2,14.55 -14.02,24.05 -13.45,24.39 0.67,0.4 6.58,-8.41 16.49,-22.33 9.9,-13.94 24.03,-32.861 40.91,-52.721 16.89,-19.82 33.32,-36.769 45.5,-48.781 12.17,-11.996 19.92,-19.246 19.42,-19.84" /><path
         id="path248"
         style="fill:#17282f;fill-opacity:1;fill-rule:nonzero;stroke:none"
         d="m 4233.54,726.469 c -1.42,0.25 1.09,21.07 5.61,46.492 4.53,25.43 9.33,45.84 10.76,45.59 1.4,-0.262 -1.11,-21.071 -5.63,-46.5 -4.52,-25.422 -9.33,-45.832 -10.74,-45.582" /><path
         id="path250"
         style="fill:#17282f;fill-opacity:1;fill-rule:nonzero;stroke:none"
         d="m 4272.48,736.059 c -1.38,-0.379 -7.44,17.5 -13.51,39.929 -6.08,22.442 -9.88,40.934 -8.5,41.313 1.4,0.371 7.44,-17.5 13.53,-39.942 6.07,-22.429 9.87,-40.929 8.48,-41.3" /><path
         id="path252"
         style="fill:#17282f;fill-opacity:1;fill-rule:nonzero;stroke:none"
         d="m 3830.7,1010.04 c 0.29,0.21 3.93,-4.4 10.28,-12.899 6.84,-9.262 15.83,-21.422 26.69,-36.121 22.5,-30.532 53.83,-72.5 88.94,-118.481 35.08,-45.488 66.81,-86.641 90.49,-117.348 11.12,-14.519 20.32,-26.531 27.31,-35.671 6.37,-8.489 9.76,-13.29 9.48,-13.508 -0.27,-0.231 -4.21,4.148 -11.06,12.25 -6.87,8.078 -16.65,19.918 -28.62,34.629 -23.92,29.449 -56.57,70.468 -91.74,116.5 -35.14,46 -66.04,88.379 -87.79,119.48 -10.88,15.539 -19.54,28.219 -25.36,37.098 -5.84,8.871 -8.93,13.871 -8.62,14.071" /><path
         id="path254"
         style="fill:#17282f;fill-opacity:1;fill-rule:nonzero;stroke:none"
         d="m 3778.52,812.48 c -0.96,-1.058 -13.82,8.899 -28.71,22.25 -14.9,13.372 -26.2,25.059 -25.25,26.129 0.96,1.082 13.82,-8.879 28.72,-22.238 14.9,-13.359 26.21,-25.062 25.24,-26.141" /><path
         id="path256"
         style="fill:#17282f;fill-opacity:1;fill-rule:nonzero;stroke:none"
         d="m 3743.41,699.77 c 1.19,-0.801 -6.81,-14.739 -17.87,-31.122 -11.06,-16.386 -21.01,-29.019 -22.2,-28.218 -1.19,0.808 6.82,14.742 17.88,31.14 11.07,16.371 21,29.008 22.19,28.2" /><path
         id="path258"
         style="fill:#17282f;fill-opacity:1;fill-rule:nonzero;stroke:none"
         d="m 3792.69,544.281 c -1.1,-0.922 -10.17,8.071 -20.24,20.071 -10.07,12.007 -17.34,22.5 -16.25,23.418 1.11,0.921 10.17,-8.059 20.24,-20.071 10.08,-12.008 17.34,-22.488 16.25,-23.418" /><path
         id="path260"
         style="fill:#17282f;fill-opacity:1;fill-rule:nonzero;stroke:none"
         d="m 3697.51,444.559 c 0.81,-1.188 -9.22,-9.379 -22.39,-18.289 -13.17,-8.899 -24.5,-15.161 -25.3,-13.969 -0.81,1.187 9.22,9.371 22.39,18.289 13.16,8.91 24.5,15.172 25.3,13.969" /><path
         id="path262"
         style="fill:#17282f;fill-opacity:1;fill-rule:nonzero;stroke:none"
         d="m 3830.61,418.211 c -0.7,-1.16 -14.31,6.687 -26.62,21.309 -12.41,14.55 -17.9,29.25 -16.65,29.75 1.36,0.679 8.71,-12.45 20.62,-26.391 11.8,-14.027 23.55,-23.43 22.65,-24.668" /><path
         id="path264"
         style="fill:#17282f;fill-opacity:1;fill-rule:nonzero;stroke:none"
         d="m 3954.69,512.422 c 0.94,-1.102 -10.53,-12.402 -25.59,-25.231 -15.06,-12.832 -28.03,-22.351 -28.97,-21.25 -0.93,1.09 10.53,12.379 25.6,25.219 15.06,12.828 28.03,22.352 28.96,21.262" /><path
         id="path266"
         style="fill:#17282f;fill-opacity:1;fill-rule:nonzero;stroke:none"
         d="m 3699.34,330.441 c -0.74,-1.16 -11.89,4.911 -22.68,16.02 -10.85,11.051 -16.65,22.32 -15.48,23.051 1.26,0.82 8.77,-8.793 19.2,-19.422 10.38,-10.68 19.81,-18.418 18.96,-19.649" /><path
         id="path268"
         style="fill:#17282f;fill-opacity:1;fill-rule:nonzero;stroke:none"
         d="m 3976.82,601.352 c 0.52,-1.301 -11.47,-7.071 -27.41,-10.461 -15.94,-3.45 -29.24,-3.102 -29.31,-1.719 -0.1,1.488 12.71,3.449 28.21,6.808 15.52,3.301 28,6.758 28.51,5.372" /><path
         id="path270"
         style="fill:#17282f;fill-opacity:1;fill-rule:nonzero;stroke:none"
         d="m 3884.4,706.539 c 1.37,-0.551 -3.69,-16.25 -9.79,-35.578 -5.29,-16.68 -9.67,-30.68 -11.68,-33.941 l -1.11,0.269 c 0.32,0.582 0.59,0.84 0.77,0.801 0.2,-0.051 0.31,-0.391 0.35,-1.07 l -1.12,0.281 c -0.25,3.808 2.48,18.379 7.83,35.219 6.15,19.55 13.45,34.539 14.75,34.019" /><path
         id="path272"
         style="fill:#17282f;fill-opacity:1;fill-rule:nonzero;stroke:none"
         d="m 3923.31,773.301 c -0.84,-1.172 -14.09,7 -29.59,18.219 -15.5,11.23 -27.39,21.269 -26.54,22.429 0.84,1.172 14.09,-6.98 29.59,-18.207 15.51,-11.222 27.39,-21.273 26.54,-22.441" /><path
         id="path274"
         style="fill:#17282f;fill-opacity:1;fill-rule:nonzero;stroke:none"
         d="m 3843.93,920.332 c 1.22,-0.711 -4.81,-13.223 -14.81,-27.023 -9.98,-13.817 -19.97,-23.45 -21.02,-22.528 -1.11,0.969 6.98,11.981 16.81,25.578 9.84,13.582 17.76,24.723 19.02,23.973" /><path
         id="path276"
         style="fill:#17282f;fill-opacity:1;fill-rule:nonzero;stroke:none"
         d="m 3721.75,940.289 c -1.42,0.109 -1.34,15.289 0.22,33.883 1.55,18.598 3.96,33.578 5.4,33.448 1.43,-0.12 1.33,-15.28 -0.21,-33.89 -1.55,-18.582 -3.97,-33.558 -5.41,-33.441" /><path
         id="path278"
         style="fill:#17282f;fill-opacity:1;fill-rule:nonzero;stroke:none"
         d="m 3674.27,719.922 c -1.43,-0.024 -2.87,16.277 -3.21,36.43 -0.33,20.148 0.56,36.5 2,36.519 1.44,0.02 2.87,-16.281 3.2,-36.43 0.34,-20.152 -0.55,-36.5 -1.99,-36.519" /><path
         id="path280"
         style="fill:#17282f;fill-opacity:1;fill-rule:nonzero;stroke:none"
         d="m 3667.62,508.469 c -1.39,-0.391 -5.39,9.332 -8.94,21.703 -3.54,12.379 -5.3,22.726 -3.92,23.129 1.39,0.39 5.38,-9.313 8.93,-21.699 3.55,-12.372 5.31,-22.731 3.93,-23.133" /><path
         id="path282"
         style="fill:#17282f;fill-opacity:1;fill-rule:nonzero;stroke:none"
         d="m 3835.98,1105.21 c 0.88,-1.21 -11.54,-11.58 -25.73,-25.47 -14.26,-13.83 -24.94,-25.98 -26.14,-25.06 -1.1,0.81 7.94,14.66 22.5,28.79 14.51,14.18 28.58,22.87 29.37,21.74" /><path
         id="path284"
         style="fill:#17282f;fill-opacity:1;fill-rule:nonzero;stroke:none"
         d="m 3764.5,1129.1 c -1.44,0.05 -1.98,14.88 -1.2,33.1 0.78,18.22 2.56,32.95 4.01,32.89 1.43,-0.07 1.97,-14.88 1.19,-33.11 -0.77,-18.23 -2.57,-32.95 -4,-32.88" /><path
         id="path286"
         style="fill:#17282f;fill-opacity:1;fill-rule:nonzero;stroke:none"
         d="m 3939.71,1152.88 c -0.97,-1.12 -12.79,7.61 -27.72,17.76 -14.9,10.18 -27.34,18.01 -26.64,19.31 0.63,1.25 14.4,-4.63 29.58,-15.01 15.2,-10.34 25.71,-21.01 24.78,-22.06" /><path
         id="path288"
         style="fill:#17282f;fill-opacity:1;fill-rule:nonzero;stroke:none"
         d="m 3901.65,1028.08 c -1.44,-0.03 -2.92,15.65 -3.31,35.02 -0.38,19.37 0.47,35.1 1.91,35.13 1.43,0.03 2.92,-15.65 3.3,-35.02 0.39,-19.37 -0.46,-35.1 -1.9,-35.13" /><path
         id="path290"
         style="fill:#17282f;fill-opacity:1;fill-rule:nonzero;stroke:none"
         d="m 4004.27,955.07 c -0.55,-1.379 -13.77,2.711 -30.27,6.629 -16.5,3.992 -30.13,6.332 -29.99,7.821 0.09,1.378 14.28,1.332 31.2,-2.758 16.92,-4.024 29.6,-10.41 29.06,-11.692" /><path
         id="path292"
         style="fill:#17282f;fill-opacity:1;fill-rule:nonzero;stroke:none"
         d="m 4011.24,1029.49 c -1.44,-0.01 -2.72,13.17 -2.87,29.43 -0.13,16.28 0.91,29.47 2.35,29.48 1.44,0.02 2.72,-13.16 2.87,-29.43 0.13,-16.27 -0.91,-29.46 -2.35,-29.48" /><path
         id="path294"
         style="fill:#17282f;fill-opacity:1;fill-rule:nonzero;stroke:none"
         d="m 4089.4,904.609 c -1.44,-0.07 -3.33,16.532 -4.24,37.051 -0.91,20.531 -0.47,37.219 0.97,37.289 1.43,0.063 3.33,-16.519 4.23,-37.058 0.9,-20.52 0.47,-37.211 -0.96,-37.282" /><path
         id="path296"
         style="fill:#17282f;fill-opacity:1;fill-rule:nonzero;stroke:none"
         d="m 4029.32,862.352 c -1.07,-0.961 -9.19,6.418 -18.12,16.468 -8.92,10.059 -15.29,18.989 -14.21,19.942 1.07,0.957 9.19,-6.422 18.11,-16.481 8.93,-10.051 15.29,-18.98 14.22,-19.929" /><path
         id="path298"
         style="fill:#17282f;fill-opacity:1;fill-rule:nonzero;stroke:none"
         d="m 4105.32,804.82 c 0.1,-1.429 -13,-3.582 -29.26,-4.8 -16.27,-1.211 -29.54,-1.032 -29.65,0.402 -0.11,1.437 12.99,3.59 29.26,4.797 16.27,1.222 29.54,1.031 29.65,-0.399" /><path
         id="path300"
         style="fill:#17282f;fill-opacity:1;fill-rule:nonzero;stroke:none"
         d="m 4162.54,775.559 c -1.43,-0.059 -3.15,14.671 -3.85,32.871 -0.68,18.211 -0.07,33.019 1.37,33.082 1.44,0.047 3.16,-14.672 3.84,-32.883 0.68,-18.207 0.08,-33.02 -1.36,-33.07" /><path
         id="path302"
         style="fill:#17282f;fill-opacity:1;fill-rule:nonzero;stroke:none"
         d="m 4218.96,666.09 c 0.01,-1.399 -16.33,-2.52 -36.31,-0.25 -19.99,2.23 -35.66,6.961 -35.34,8.308 0.31,1.454 16.25,-0.937 35.93,-3.128 19.65,-2.25 35.73,-3.45 35.72,-4.93" /><path
         id="path304"
         style="fill:#17282f;fill-opacity:1;fill-rule:nonzero;stroke:none"
         d="m 4315.88,716.602 c 1.36,-0.473 -2.53,-15.321 -8.68,-33.153 -6.16,-17.828 -12.26,-31.91 -13.61,-31.437 -1.36,0.468 2.53,15.308 8.69,33.136 6.15,17.832 12.24,31.911 13.6,31.454" /><path
         id="path306"
         style="fill:#17282f;fill-opacity:1;fill-rule:nonzero;stroke:none"
         d="m 4385.86,804.961 c -0.38,-1.379 -14.21,1.23 -30.88,5.828 -16.67,4.609 -29.87,9.481 -29.49,10.859 0.39,1.391 14.21,-1.226 30.88,-5.839 16.67,-4.598 29.87,-9.457 29.49,-10.848" /><path
         id="path308"
         style="fill:#17282f;fill-opacity:1;fill-rule:nonzero;stroke:none"
         d="m 4442.01,771.352 c 0.95,-1.071 -8.75,-11.25 -21.67,-22.711 -12.92,-11.481 -24.17,-19.903 -25.12,-18.821 -0.96,1.071 8.74,11.239 21.66,22.711 12.92,11.469 24.17,19.899 25.13,18.821" /><path
         id="path310"
         style="fill:#17282f;fill-opacity:1;fill-rule:nonzero;stroke:none"
         d="m 4464.55,854.16 c -1.3,-0.449 -7.15,13.68 -10.44,32.121 -3.34,18.449 -2.78,33.707 -1.39,33.75 1.49,0.071 3.24,-14.769 6.52,-32.82 3.21,-18.063 6.73,-32.59 5.31,-33.051" /><path
         id="path312"
         style="fill:#17282f;fill-opacity:1;fill-rule:nonzero;stroke:none"
         d="m 4571.55,873.148 c 0.9,-1.187 -13.94,-13.859 -31.07,-30.617 -17.2,-16.711 -30.22,-31.23 -31.39,-30.281 -1.09,0.84 10.3,17.039 27.76,34.012 17.39,17.008 33.88,28 34.7,26.886" /><path
         id="path314"
         style="fill:#17282f;fill-opacity:1;fill-rule:nonzero;stroke:none"
         d="m 4582.1,911.172 c -0.51,-1.352 -15.33,3.019 -33.08,9.758 -17.77,6.742 -31.75,13.289 -31.24,14.64 0.5,1.352 15.32,-3.031 33.08,-9.769 17.77,-6.731 31.75,-13.289 31.24,-14.629" /><path
         id="path316"
         style="fill:#17282f;fill-opacity:1;fill-rule:nonzero;stroke:none"
         d="m 4571.89,952.57 c -1.39,-0.398 -6.09,11.719 -10.49,27.059 -4.4,15.34 -6.86,28.101 -5.48,28.501 1.39,0.4 6.08,-11.72 10.49,-27.06 4.4,-15.34 6.86,-28.109 5.48,-28.5" /><path
         id="path318"
         style="fill:#17282f;fill-opacity:1;fill-rule:nonzero;stroke:none"
         d="m 4012.09,664.449 c -1.17,-0.828 -9.59,9.02 -18.8,22 -9.2,12.981 -15.72,24.18 -14.55,25.012 1.18,0.84 9.59,-9.02 18.8,-22 9.21,-12.981 15.73,-24.172 14.55,-25.012" /><path
         id="path320"
         style="fill:#17282f;fill-opacity:1;fill-rule:nonzero;stroke:none"
         d="m 4774.5,160.691 c -0.09,-0.011 -0.36,1.43 -0.78,4.258 -0.43,3.071 -1,7.25 -1.75,12.59 -1.49,11.34 -3.64,27.609 -6.38,48.441 -5.65,42.051 -13.8,102.911 -25.9,177.782 -12.14,74.859 -28.16,163.777 -51.02,261.379 -2.55,12.41 -6.25,24.089 -11.98,35.328 -6.13,10.953 -14.26,20.863 -23.97,29.23 -19.76,16.18 -46.15,25.672 -72.8,23.571 -13.24,-0.872 -26.58,-4.129 -38.57,-10.461 -12.01,-6.008 -22.93,-14.899 -34.35,-23.188 -22.61,-16.801 -45.56,-33.859 -68.77,-51.133 -92.61,-69.468 -179.34,-137.609 -256.66,-201.468 -77.53,-63.692 -144.92,-123.7 -201.46,-174.438 -28.62,-24.602 -59.12,-44.312 -90.06,-47.473 -15.23,-1.949 -29.66,0.7 -41.92,5.039 -12.3,4.512 -22.49,10.872 -31.11,17.133 -17.13,12.758 -28.35,25.02 -36.03,33.098 -3.61,4.012 -6.44,7.141 -8.52,9.453 -1.87,2.168 -2.8,3.297 -2.73,3.359 0.06,0.071 1.12,-0.953 3.12,-3 2.17,-2.222 5.11,-5.23 8.88,-9.082 7.9,-7.839 19.35,-19.828 36.48,-32.179 8.59,-6.071 18.71,-12.192 30.75,-16.442 12.01,-4.09 25.99,-6.519 40.75,-4.488 29.92,3.309 59.71,22.75 88,47.371 56.06,50.961 123.41,111.438 200.79,175.348 77.22,64.121 163.93,132.422 256.59,201.941 23.23,17.27 46.19,34.332 68.83,51.129 11.36,8.231 22.29,17.18 35.13,23.633 12.59,6.617 26.63,10.039 40.52,10.937 27.99,2.153 55.64,-7.82 76.33,-24.847 10.18,-8.793 18.68,-19.211 25.09,-30.723 5.97,-11.648 9.88,-24.379 12.33,-36.559 22.65,-97.82 38.31,-186.902 49.99,-261.89 11.65,-75.012 19.25,-135.969 24.28,-178.11 2.33,-20.878 4.15,-37.191 5.41,-48.558 0.53,-5.371 0.94,-9.57 1.24,-12.66 0.26,-2.852 0.33,-4.313 0.25,-4.321" /><path
         id="path322"
         style="fill:#17282f;fill-opacity:1;fill-rule:nonzero;stroke:none"
         d="m 4891.34,166.262 c 0.02,-0.352 -3.56,-0.903 -10.05,-1.582 -6.48,-0.68 -15.89,-1.461 -27.51,-2.27 -23.25,-1.64 -55.4,-3.301 -90.9,-4.84 -34.82,-1.5 -66.29,-2.851 -90.9,-3.91 -10.72,-0.39 -19.9,-0.738 -27.57,-1.019 -6.52,-0.172 -10.14,-0.082 -10.16,0.269 -0.03,0.36 3.54,0.969 10.01,1.75 6.48,0.801 15.87,1.711 27.48,2.68 23.23,1.93 55.38,3.879 90.91,5.43 34.82,1.269 66.32,2.421 90.95,3.312 10.71,0.238 19.9,0.457 27.58,0.617 6.52,0.063 10.13,-0.078 10.16,-0.437" /><path
         id="path324"
         style="fill:#17282f;fill-opacity:1;fill-rule:nonzero;stroke:none"
         d="m 4635.06,655.691 c 1.12,-0.75 -14.79,-25.332 -39.17,-51.812 -24.3,-26.57 -47.41,-44.527 -48.26,-43.5 -1.01,1.172 20.37,20.723 44.42,47.019 24.13,26.211 41.77,49.192 43.01,48.293" /><path
         id="path326"
         style="fill:#17282f;fill-opacity:1;fill-rule:nonzero;stroke:none"
         d="m 4644.74,625.32 c 0.69,-1.3 -18.83,-13.031 -42.66,-27.789 -23.87,-14.722 -43.09,-26.929 -43.94,-25.722 -0.82,1.132 17.18,15.332 41.2,30.152 23.99,14.848 44.75,24.598 45.4,23.359" /><path
         id="path328"
         style="fill:#33535f;fill-opacity:1;fill-rule:nonzero;stroke:none"
         d="m 5487.22,140.469 c -0.02,-0.168 -2.13,-0.117 -6.11,0.133 -4.54,0.367 -10.32,0.828 -17.43,1.398 -15.79,1.488 -37.48,3.551 -63.98,6.07 -54.58,5.68 -128.84,13.43 -210.89,21.989 -82.36,8.64 -156.8,18.222 -210.89,20.902 -27.04,1.43 -48.96,1.277 -64.11,0.769 -7.11,-0.308 -12.88,-0.558 -17.43,-0.769 -3.98,-0.191 -6.09,-0.191 -6.11,-0.012 -0.02,0.18 2.05,0.539 6.02,1.063 3.97,0.57 9.84,1.117 17.41,1.738 15.17,1.141 37.2,1.852 64.38,0.891 54.43,-1.762 128.91,-10.762 211.26,-19.403 81.99,-9.148 156.19,-17.418 210.73,-23.508 26.44,-3.199 48.07,-5.82 63.82,-7.718 7.07,-0.973 12.8,-1.75 17.32,-2.371 3.96,-0.59 6.02,-0.993 6.01,-1.172" /><path
         id="path330"
         style="fill:#33535f;fill-opacity:1;fill-rule:nonzero;stroke:none"
         d="m 5474.52,28.7188 c -1.42,0.1718 3.1,50.3398 10.11,112.0432 7,61.718 13.85,111.617 15.28,111.449 1.43,-0.16 -3.1,-50.313 -10.11,-112.039 -7,-61.7032 -13.85,-111.6017 -15.28,-111.4532" /></g></g></svg>